<svg id="Layer_1" data-name="Layer 1" xmlns="http://www.w3.org/2000/svg" viewBox="0 0 157.6 22.03"><defs><style>.cls-1{fill:#f5802f;}</style></defs><path class="cls-1" d="M8.92,18.19A3,3,0,0,1,8,19.66a4.72,4.72,0,0,1-1.93,1l-1.51.47,1.07,3.41-2.4.76C2,21.56,1.39,19.67.17,15.89c1.61-.52,2.42-.78,4-1.27a5,5,0,0,1,2.2-.24A2.88,2.88,0,0,1,8,15.09a3.14,3.14,0,0,1,.89,1.47A3,3,0,0,1,8.92,18.19Zm-2.64.1a1.19,1.19,0,0,0,.09-1,1.17,1.17,0,0,0-.62-.77,1.56,1.56,0,0,0-1.15,0L3.25,17,4,19.34l1.34-.42A1.54,1.54,0,0,0,6.28,18.29Z" transform="translate(-0.17 -3.31)"/><path class="cls-1" d="M10.33,16.81a3.56,3.56,0,0,1,.9-1.73,3.65,3.65,0,0,1,1.7-1,3.26,3.26,0,0,1,1.6-.08,2.54,2.54,0,0,1,1.23.6l-.28-1.08L18,12.91l1.9,7.66-2.43.62-.28-1.08a2.69,2.69,0,0,1-.77,1.12A3.24,3.24,0,0,1,15,22a3.57,3.57,0,0,1-1.89,0,3.66,3.66,0,0,1-1.64-1A4.56,4.56,0,0,1,10.45,19,4.35,4.35,0,0,1,10.33,16.81Zm5.26-.69A1.73,1.73,0,0,0,14.2,16a1.82,1.82,0,0,0-1.12.83A1.89,1.89,0,0,0,13,18.29a1.92,1.92,0,0,0,.89,1.25,1.73,1.73,0,0,0,1.37.18,1.77,1.77,0,0,0,1.11-.83,2,2,0,0,0,.15-1.52A1.93,1.93,0,0,0,15.59,16.12Z" transform="translate(-0.17 -3.31)"/><path class="cls-1" d="M28.21,10.6c-1.13,5-1.65,7.48-2.59,12.47-1,.23-1.55.35-2.59.6.35-1.74.53-2.6.9-4.34-2-2.67-3-4-5.05-6.64L21.69,12c1.21,1.75,1.8,2.63,3,4.39.31-2.1.47-3.14.81-5.24C26.57,10.93,27.12,10.82,28.21,10.6Z" transform="translate(-0.17 -3.31)"/><path class="cls-1" d="M42.28,8.94a3.27,3.27,0,0,1,1.27,2.32l.65,4.57-2.45.36L41.1,12a1.46,1.46,0,0,0-1.83-1.33,1.62,1.62,0,0,0-1.09.6A1.57,1.57,0,0,0,38,12.46l.7,4.23c-1,.16-1.47.24-2.44.42l-.75-4.23a1.55,1.55,0,0,0-.63-1.08,1.57,1.57,0,0,0-1.23-.21,1.47,1.47,0,0,0-1.27,1.87l.8,4.21-2.45.48c-.63-3.1-.94-4.64-1.56-7.74l2.53-.5.19,1a2.54,2.54,0,0,1,.86-1,3.39,3.39,0,0,1,1.36-.55,3.7,3.7,0,0,1,1.73.08,2.76,2.76,0,0,1,1.33.88,3.37,3.37,0,0,1,1-1.24,3.73,3.73,0,0,1,4.15-.16Z" transform="translate(-0.17 -3.31)"/><path class="cls-1" d="M53.15,11.33c-2.27.24-3.41.37-5.68.66a1.64,1.64,0,0,0,.63,1,1.57,1.57,0,0,0,1.11.26,1.34,1.34,0,0,0,1.21-.92l2.67-.29a3.62,3.62,0,0,1-.59,1.47,3.69,3.69,0,0,1-1.23,1.12,4.52,4.52,0,0,1-1.74.56A4.45,4.45,0,0,1,47.36,15a3.59,3.59,0,0,1-1.64-1.21,4.33,4.33,0,0,1-.82-2.06,4.32,4.32,0,0,1,.23-2.2,3.55,3.55,0,0,1,1.3-1.6,5.11,5.11,0,0,1,4.34-.54,3.47,3.47,0,0,1,1.61,1.21,4,4,0,0,1,.75,2A5.51,5.51,0,0,1,53.15,11.33Zm-2.67-1.06a1.24,1.24,0,0,0-.56-.93,1.83,1.83,0,0,0-2.19.25,1.51,1.51,0,0,0-.41,1.06C48.58,10.49,49.21,10.41,50.48,10.27Z" transform="translate(-0.17 -3.31)"/><path class="cls-1" d="M61.57,6.87a3.4,3.4,0,0,1,1,2.41l.3,4.6-2.47.18-.33-4.28a1.6,1.6,0,0,0-.52-1.19,1.55,1.55,0,0,0-1.19-.35,1.53,1.53,0,0,0-1.12.54A1.65,1.65,0,0,0,57,10l.38,4.27-2.48.23c-.31-3.14-.46-4.71-.77-7.86l2.56-.24.09,1a2.69,2.69,0,0,1,1-.92,3.45,3.45,0,0,1,1.46-.42A3.11,3.11,0,0,1,61.57,6.87Z" transform="translate(-0.17 -3.31)"/><path class="cls-1" d="M69.08,11.5l.08,2.05-1.27.06a3.22,3.22,0,0,1-2.14-.54A2.64,2.64,0,0,1,64.87,11L64.7,7.87l-1,.06-.12-2,1-.06L64.47,4l2.59-.14.09,1.93,1.68-.08.08,2-1.67.07.15,3.17a.65.65,0,0,0,.2.5.88.88,0,0,0,.59.13Z" transform="translate(-0.17 -3.31)"/><path class="cls-1" d="M73.7,5.81A4.55,4.55,0,0,1,75.56,4a5.81,5.81,0,0,1,2.76-.67,5.46,5.46,0,0,1,3.23.95A4.4,4.4,0,0,1,83.3,6.83l-2.81,0a2.11,2.11,0,0,0-.89-1,2.58,2.58,0,0,0-1.31-.33,2.49,2.49,0,0,0-1.91.79,2.87,2.87,0,0,0-.71,2.09,2.91,2.91,0,0,0,.75,2.07,2.48,2.48,0,0,0,1.89.77,2.52,2.52,0,0,0,1.28-.33,2.17,2.17,0,0,0,.88-.94l2.77,0a4.48,4.48,0,0,1-1.78,2.52,5.29,5.29,0,0,1-3.12.91,5.53,5.53,0,0,1-2.66-.62,4.73,4.73,0,0,1-1.87-1.76,5.11,5.11,0,0,1-.72-2.6A5,5,0,0,1,73.7,5.81Z" transform="translate(-0.17 -3.31)"/><path class="cls-1" d="M86.27,13.09a3.73,3.73,0,0,1-1.46-1.46,4.21,4.21,0,0,1-.51-2.16,4,4,0,0,1,.62-2.13A3.68,3.68,0,0,1,86.51,6,5.14,5.14,0,0,1,91,6.13a3.81,3.81,0,0,1,1.48,1.5,4.11,4.11,0,0,1,.45,2.18,4,4,0,0,1-.69,2.1,3.81,3.81,0,0,1-1.6,1.35,4.81,4.81,0,0,1-2.19.4A4.69,4.69,0,0,1,86.27,13.09Zm3.46-2a2,2,0,0,0,.58-1.44,2,2,0,0,0-.44-1.47,1.58,1.58,0,0,0-1.2-.56,1.66,1.66,0,0,0-1.26.45,2.06,2.06,0,0,0-.53,1.45A2,2,0,0,0,87.31,11a1.59,1.59,0,0,0,1.18.56A1.73,1.73,0,0,0,89.73,11.11Z" transform="translate(-0.17 -3.31)"/><path class="cls-1" d="M107.51,7.9a3.27,3.27,0,0,1,.63,2.57l-.54,4.58-2.46-.28c.18-1.7.27-2.56.46-4.26a1.59,1.59,0,1,0-3.16-.32L102,14.46l-2.46-.23L99.93,10a1.58,1.58,0,0,0-.32-1.21,1.61,1.61,0,0,0-1.14-.51,1.55,1.55,0,0,0-1.19.33,1.51,1.51,0,0,0-.51,1.14L96.46,14,94,13.83c.19-3.16.29-4.73.48-7.89L97,6.12,97,7.1A2.66,2.66,0,0,1,98,6.4a3.14,3.14,0,0,1,1.45-.18,3.65,3.65,0,0,1,1.65.52,2.9,2.9,0,0,1,1.06,1.19A3.24,3.24,0,0,1,103.47,7a3.15,3.15,0,0,1,1.67-.24A3.33,3.33,0,0,1,107.51,7.9Z" transform="translate(-0.17 -3.31)"/><path class="cls-1" d="M113.87,8.12A3.28,3.28,0,0,1,115.45,8a3.57,3.57,0,0,1,1.79.77,3.43,3.43,0,0,1,1.09,1.6,4.54,4.54,0,0,1,.14,2.19,4.66,4.66,0,0,1-.81,2,3.59,3.59,0,0,1-1.51,1.21,3.51,3.51,0,0,1-1.88.23,3.42,3.42,0,0,1-1.43-.55,2.93,2.93,0,0,1-.89-1l-.65,4.82L108.87,19l1.45-11.56c1,.12,1.53.19,2.55.33l-.15,1.11A2.81,2.81,0,0,1,113.87,8.12Zm1.74,2.56a1.79,1.79,0,0,0-1.22-.69,1.75,1.75,0,0,0-1.35.33,1.92,1.92,0,0,0-.72,1.35,2,2,0,0,0,.33,1.49,1.83,1.83,0,0,0,2.53.35,2,2,0,0,0,.74-1.34A1.9,1.9,0,0,0,115.61,10.68Z" transform="translate(-0.17 -3.31)"/><path class="cls-1" d="M123.42,6.8c-.73,4.13-1.09,6.19-1.82,10.31l-2.46-.42c.69-4.13,1-6.2,1.72-10.33Z" transform="translate(-0.17 -3.31)"/><path class="cls-1" d="M131.59,15.65c-2.24-.48-3.37-.72-5.62-1.15a1.66,1.66,0,0,0,.27,1.2,1.6,1.6,0,0,0,1,.59,1.35,1.35,0,0,0,1.44-.49l2.63.55a3.64,3.64,0,0,1-1,1.22,3.82,3.82,0,0,1-1.52.68,4.52,4.52,0,0,1-1.83,0,4.47,4.47,0,0,1-2-.89,3.63,3.63,0,0,1-1.19-1.67,4.27,4.27,0,0,1-.13-2.21,4.27,4.27,0,0,1,.91-2,3.51,3.51,0,0,1,1.73-1.11,5.06,5.06,0,0,1,4.3.85,3.45,3.45,0,0,1,1.17,1.65,4,4,0,0,1,.08,2.14A6.45,6.45,0,0,1,131.59,15.65Zm-2.22-1.84a1.23,1.23,0,0,0-.24-1.06,1.72,1.72,0,0,0-1-.59,1.65,1.65,0,0,0-1.13.14,1.51,1.51,0,0,0-.73.88C127.49,13.42,128.12,13.55,129.37,13.81Z" transform="translate(-0.17 -3.31)"/><path class="cls-1" d="M137.13,18.28l-.49,2L135.4,20a3.19,3.19,0,0,1-1.92-1.11,2.6,2.6,0,0,1-.28-2.22c.27-1.22.41-1.83.68-3.06l-1-.22.43-2,1,.22.42-1.88,2.54.59-.45,1.87,1.65.39-.47,2-1.64-.39c-.29,1.23-.43,1.85-.72,3.08a.64.64,0,0,0,.05.54.91.91,0,0,0,.54.29Z" transform="translate(-0.17 -3.31)"/><path class="cls-1" d="M146.33,19.33c-2.22-.63-3.33-.93-5.56-1.5A1.56,1.56,0,0,0,141,19a1.53,1.53,0,0,0,.94.65,1.34,1.34,0,0,0,1.47-.4L146,20a3.45,3.45,0,0,1-1.1,1.15,3.67,3.67,0,0,1-1.55.58,4.47,4.47,0,0,1-1.84-.12,4.72,4.72,0,0,1-2-1,3.59,3.59,0,0,1-1.08-1.73,4.18,4.18,0,0,1,0-2.22,4.15,4.15,0,0,1,1-2,3.52,3.52,0,0,1,1.8-1,4.8,4.8,0,0,1,2.28.08,4.69,4.69,0,0,1,2,1,3.45,3.45,0,0,1,1.06,1.72,3.82,3.82,0,0,1-.05,2.14A6.66,6.66,0,0,1,146.33,19.33Zm-2.12-2a1.21,1.21,0,0,0-.17-1.07,1.73,1.73,0,0,0-1-.65,1.64,1.64,0,0,0-1.14.07,1.48,1.48,0,0,0-.78.83Z" transform="translate(-0.17 -3.31)"/><path class="cls-1" d="M148.4,17.08a3.38,3.38,0,0,1,1.67-1,3.64,3.64,0,0,1,2,.06,3.52,3.52,0,0,1,1.37.76,2.72,2.72,0,0,1,.77,1.16l1.1-3.5,2.5.8c-1.29,4-1.94,6-3.24,10l-2.4-.76.34-1.08a2.68,2.68,0,0,1-1.23.56,3.26,3.26,0,0,1-1.56-.12,3.6,3.6,0,0,1-1.62-1,3.56,3.56,0,0,1-.85-1.74,4.48,4.48,0,0,1,.13-2.19A4.38,4.38,0,0,1,148.4,17.08Zm4.83,2.21a1.86,1.86,0,0,0-2.48-.77,1.88,1.88,0,0,0-.92,1.21,2,2,0,0,0,.1,1.53,1.74,1.74,0,0,0,1.07.88,1.81,1.81,0,0,0,1.39-.13,1.94,1.94,0,0,0,.93-1.2A1.88,1.88,0,0,0,153.23,19.29Z" transform="translate(-0.17 -3.31)"/></svg>